<svg xmlns="http://www.w3.org/2000/svg" width="112" height="28" viewBox="0 0 112 28">
    <g fill="none" fill-rule="evenodd">
        <g fill="#003781">
            <path d="M84.4 40.204l1.304-4.4h5.153l1.221 4.4h4.775l-4.744-16.787c-.273-.991-.869-1.45-1.902-1.45h-6.754v1.586h.568c.705 0 1.086.277 1.086.822 0 .356-.079.656-.359 1.474L80 40.204h4.4zm16.598-18.237c.843 0 1.353.52 1.353 1.398v16.839h-4.256V24.571c0-.717-.297-1.018-1.002-1.018h-.271v-1.586zm7.237 0c.84 0 1.357.52 1.357 1.398v16.839h-4.26V24.571c0-.717-.298-1.018-1.006-1.018h-.266v-1.586zm7.344 4.569c.842 0 1.36.518 1.36 1.392v12.276h-4.236V29.13c0-.712-.297-1.039-1.002-1.039h-.243v-1.555zm-27.161-.413l1.789 6.697h-3.824l2.035-6.697zm37.298.217c3.449 0 4.643 1.208 4.643 4.679v6.51c0 .872.27 1.203 1.002 1.203h.19v1.472h-3.877c-.844 0-1.275-.435-1.275-1.282v-.19c-.87.684-1.223.908-1.818 1.174-.68.271-1.44.433-2.281.433-2.305 0-3.415-1.256-3.415-3.853 0-2.048.807-3.38 2.519-4.072.514-.22 1.038-.383 1.602-.517.979-.217 1.52-.33 3.256-.606v-.305c0-1.195-.407-1.606-1.55-1.606-1.218 0-2.765.384-4.178 1.068l-.943-2.627c1.268-.631 1.813-.85 2.876-1.094 1.055-.244 2.14-.387 3.25-.387zm-11.138-4.671c1.542 0 2.44.74 2.44 1.962 0 1.238-.898 1.97-2.44 1.97-1.518 0-2.446-.732-2.446-1.97 0-1.222.928-1.962 2.446-1.962zM178.11 18C186.058 18 192 23.996 192 32.002 192 40.018 186.058 46 178.111 46c-7.95 0-13.89-5.982-13.89-13.998 0-8.006 5.94-14.002 13.89-14.002zm-36.151 8.373c1.116 0 1.984.324 2.554.957.68.734.837 1.417.837 3.58v9.294h-4.23v-8.66c0-1.376-.215-1.733-1.113-1.733-.842 0-1.571.357-2.28 1.152v9.241h-4.23V29.13c0-.712-.302-1.039-1.006-1.039h-.244v-1.555h4.018c.866 0 1.307.435 1.307 1.286v.545c1.566-1.476 2.731-1.994 4.387-1.994zm15.676.161v2.821l-5.643 7.98h5.914v2.869h-10.66v-2.813l5.697-8.067h-3.042c-.674 0-.999.3-.999.928v.244h-1.572v-2.483c0-1.015.46-1.479 1.465-1.479h8.84zm-31.374 7.105v2.657c-.708.739-1.572 1.181-2.303 1.181-.764 0-1.031-.378-1.031-1.402 0-1.012.212-1.472.973-1.77.569-.249 1.302-.466 2.361-.666zm63.378-1.637c0 6.809-4.856 11.759-11.529 11.759s-11.53-4.95-11.53-11.76 4.857-11.76 11.53-11.76c6.673 0 11.53 4.981 11.53 11.76zm-15.3 7.853V26.178h-2.36c-1.168 0-1.626.436-1.626 1.644v12.033h3.986zm7.546 0h3.985V27.822c0-1.208-.463-1.644-1.63-1.644h-2.355v13.677zm-1.77 0V24.404c0-1.231-.434-1.646-1.62-1.646h-3.588v1.726h.214c.82 0 .978.186.978 1.18v14.191h4.016z" transform="translate(-80 -18)"/>
        </g>
    </g>
</svg>
